<svg xmlns="http://www.w3.org/2000/svg" width="32" height="32" viewBox="0 0 32 32"><g><g><path fill="#f04e23" d="M32 17v11c0 3.888-14.362 4-16 4s-16-.112-16-4V17c0-.305.097-.583.26-.843l3.396-8.49A2.992 2.992 0 0 1 2 5c0-1.654 1.346-3 3-3s3 1.346 3 3a2.992 2.992 0 0 1-1.656 2.667l2.29 5.725a63.565 63.565 0 0 1 3.034-.253l2.988-7.472A2.991 2.991 0 0 1 13 3c0-1.655 1.346-3 3-3s3 1.345 3 3a2.994 2.994 0 0 1-1.656 2.668l2.988 7.47c.952.058 1.986.14 3.034.254l2.29-5.725A2.992 2.992 0 0 1 24 5c0-1.654 1.346-3 3-3s3 1.346 3 3a2.992 2.992 0 0 1-1.656 2.667l3.396 8.49c.163.26.26.538.26.843zM2 25.854C6.005 24.068 14.744 24 16 24c1.256 0 9.995.068 14 1.854v-8.66l-.052-.13C29.164 16.313 24.46 15 16 15S2.836 16.313 2.052 17.063l-.052.13zM26 5a1 1 0 1 0 2-.001 1 1 0 0 0-2 0zm-.587 8.659c1.256.196 2.457.451 3.485.78L27 9.693zM15 2.999a1 1 0 1 0 2.001 0 1 1 0 0 0-2 0zm-1.138 10.04A66.973 66.973 0 0 1 16 13c.313 0 1.089.004 2.138.038L16 7.693zm-7.275.62L5 9.693 3.102 14.44c1.028-.329 2.23-.584 3.485-.78zM4 4.999a1 1 0 1 0 2 0 1 1 0 0 0-2 0zm25.883 23c-.978-.757-5.661-2-13.883-2S3.095 27.243 2.117 28c.978.758 5.661 2 13.883 2s12.905-1.242 13.883-2zM9.13 21.32c.07.551-.32 1.051-.87 1.12h-.12c-.5 0-.93-.37-.99-.87-.07-.55.32-1.05.86-1.119.55-.07 1.05.32 1.12.87zm13.73 0c.07-.55.57-.939 1.12-.869.54.07.93.57.87 1.12-.07.5-.5.87-1 .87h-.12c-.55-.07-.94-.57-.87-1.12zm-17.63.57a.992.992 0 0 1-.97 1.241c-.45 0-.85-.3-.97-.75-.13-.54.19-1.08.73-1.22a.994.994 0 0 1 1.21.73zm7.83-.84c.03.55-.4 1.02-.95 1.05h-.05a1 1 0 0 1-1-.939.999.999 0 0 1 .95-1.051l-.01-.01c.56-.03 1.03.4 1.06.95zM16 22c-.56 0-1.01-.45-1.01-.999A1.005 1.005 0 0 1 17 21c0 .55-.45 1-1 1zm10.76-.11a1 1 0 1 1 .73 1.21 1 1 0 0 1-.73-1.21zm-7.83-.84c.03-.55.5-.98 1.06-.94l-.01-.01c.56.03.98.51.95 1.061-.03.53-.47.94-.99.94h-.06c-.55-.03-.98-.5-.95-1.05zm3.93-2.73c.07-.55.57-.94 1.12-.869.54.07.93.57.87 1.12-.07.5-.5.87-1 .87h-.12c-.55-.07-.94-.57-.87-1.12zm-3.93-.27c.03-.549.5-.969 1.06-.95a1 1 0 0 1 .94 1.061c-.03.53-.47.94-1 .94h-.05c-.55-.03-.98-.5-.95-1.05zm7.83.84a.99.99 0 0 1 1.21-.729.999.999 0 1 1-1.21.73zm-13.7-.84a.997.997 0 0 1-.95 1.05h-.05a1 1 0 0 1-.054-2H12h.01l-.004.001a1.007 1.007 0 0 1 1.054.95zM15 18c-.01-.55.44-1 .99-1H16c.55 0 1 .45 1 1s-.45 1-1 1c-.56 0-1-.45-1-1zm-9.77.89a.992.992 0 0 1-.97 1.24c-.45 0-.85-.3-.97-.75-.13-.54.19-1.08.73-1.22a.999.999 0 0 1 1.21.73zm3.9-.57c.07.55-.32 1.05-.87 1.12h-.12c-.5 0-.93-.37-.99-.87a1 1 0 0 1 .86-1.12h.01a.997.997 0 0 1 1.11.87z"/></g></g></svg>