<svg xmlns="http://www.w3.org/2000/svg" width="18" height="32" viewBox="0 0 18 32"><g><g><path fill="#f04e23" d="M10 29.92v1.065a1 1 0 1 1-2 0V29.92C3.783 29.422.5 25.828.5 21.476.5 11.77 7.86.852 8.174.392c.372-.546 1.28-.546 1.652 0C10.14.852 17.5 11.77 17.5 21.476c0 4.352-3.283 7.946-7.5 8.444zm5.5-8.444c0-7.22-4.583-15.504-6.5-18.652-1.916 3.148-6.5 11.431-6.5 18.652 0 3.246 2.39 5.937 5.5 6.421v-3.504l-2.707-2.71a1.001 1.001 0 0 1 1.414-1.415L8 21.562v-4.176l-2.707-2.71a1 1 0 0 1 1.414-1.415L8 14.555V8.963a1 1 0 1 1 2 0v5.592l1.293-1.294a1 1 0 0 1 1.414 1.415L10 17.386v4.176l1.293-1.294a1.001 1.001 0 0 1 1.414 1.416L10 24.392v3.504c3.11-.484 5.5-3.175 5.5-6.421z"/></g></g></svg>