<svg xmlns="http://www.w3.org/2000/svg" width="32" height="32" viewBox="0 0 32 32"><g><g><path fill="#f04e23" d="M31.998 15.856a1 1 0 0 0-1.009-.99l-2.583.022 2.271-2.312a1 1 0 0 0-1.427-1.401l-3.672 3.739-7.173.064 4.954-5.043 5.243-.048a1 1 0 1 0-.018-2l-3.243.03L27.224 6a1 1 0 1 0-1.427-1.402l-1.881 1.916-.03-3.242a1 1 0 1 0-2 .019l.047 5.24-4.956 5.046-.064-7.17 3.675-3.741a1 1 0 1 0-1.427-1.401l-2.273 2.314-.023-2.586a1 1 0 1 0-2 .018l.023 2.584-2.312-2.271a1 1 0 1 0-1.402 1.426l3.74 3.673.064 7.172L9.934 8.64l-.047-5.243a1 1 0 0 0-2 .018l.03 3.243L6 4.777a1 1 0 1 0-1.402 1.426l1.916 1.882-3.241.029a1 1 0 0 0 .018 2l5.241-.047 5.044 4.954-7.171.064-3.74-3.673a1 1 0 0 0-1.4 1.427l2.311 2.272-2.583.023a1 1 0 0 0 .018 2l2.585-.023-2.273 2.314a1 1 0 0 0 1.427 1.401l3.674-3.74 7.17-.065-4.956 5.046-5.24.047a1 1 0 0 0 .018 2l3.24-.03L4.776 26a1 1 0 1 0 1.426 1.402l1.883-1.917.029 3.244a1 1 0 1 0 2-.018l-.047-5.243 4.954-5.044.064 7.173-3.673 3.739a1 1 0 1 0 1.427 1.402l2.271-2.313.023 2.583a1 1 0 1 0 2-.018l-.023-2.585 2.314 2.274a.997.997 0 0 0 1.414-.013 1 1 0 0 0-.012-1.414l-3.741-3.675-.064-7.17 5.045 4.955.047 5.242a1 1 0 0 0 2-.018l-.029-3.242 1.915 1.882a.998.998 0 0 0 1.414-.013 1 1 0 0 0-.012-1.414l-1.916-1.882 3.242-.03a1 1 0 1 0-.018-1.999l-5.242.047-5.045-4.956 7.172-.064 3.74 3.674a.996.996 0 0 0 1.415-.012 1 1 0 0 0-.013-1.414l-2.314-2.274 2.585-.023a1 1 0 0 0 .991-1.009z"/></g></g></svg>