<svg xmlns="http://www.w3.org/2000/svg" width="32" height="32" viewBox="0 0 32 32"><g><g><path fill="#f04e23" d="M30 5.6c0 .1.236.26.545.462.58.377 1.455.946 1.455 2.138s-.875 1.761-1.455 2.138c-.309.2-.545.362-.545.462 0 .1.236.261.545.462.58.376 1.455.946 1.455 2.138 0 1.191-.875 1.761-1.455 2.138-.309.202-.545.364-.545.462 0 .1.236.26.545.461.58.377 1.455.946 1.455 2.14 0 1.191-.876 1.76-1.455 2.137-.309.2-.545.363-.545.462 0 .1.236.26.544.46.58.378 1.456.947 1.456 2.14 0 1.195-.911 1.786-1.456 2.14-.308.2-.544.36-.544.46 0 .1.236.261.544.462C31.09 27.215 32 27.806 32 29v2a1 1 0 0 1-1 1h-2c-1.191 0-1.76-.875-2.137-1.454-.201-.31-.363-.546-.463-.546-.1 0-.26.236-.462.546-.376.578-.946 1.454-2.138 1.454s-1.761-.876-2.138-1.454c-.2-.31-.362-.546-.462-.546-.099 0-.26.236-.461.545-.377.58-.946 1.455-2.138 1.455s-1.762-.876-2.14-1.454c-.2-.31-.362-.546-.461-.546-.1 0-.26.236-.461.545-.377.58-.946 1.455-2.139 1.455-1.192 0-1.761-.876-2.138-1.454-.2-.31-.362-.546-.462-.546-.1 0-.26.236-.46.544C9.961 31.124 9.393 32 8.2 32c-1.195 0-1.786-.912-2.139-1.456-.2-.308-.36-.544-.46-.544-.101 0-.262.236-.462.545C4.785 31.089 4.194 32 3 32H1a1 1 0 0 1-1-1v-2c0-1.191.875-1.76 1.455-2.138.309-.201.545-.363.545-.462 0-.1-.236-.26-.545-.462C.875 25.561 0 24.992 0 23.8s.875-1.761 1.455-2.138c.309-.2.545-.362.545-.462 0-.1-.236-.26-.545-.462C.875 20.362 0 19.793 0 18.6c0-1.191.875-1.761 1.455-2.139.309-.2.545-.362.545-.461 0-.1-.236-.26-.545-.462C.875 15.162 0 14.593 0 13.4c0-1.192.875-1.76 1.455-2.138.309-.2.545-.363.545-.462 0-.1-.236-.26-.544-.46C.876 9.961 0 9.393 0 8.2c0-1.194.911-1.786 1.456-2.139.308-.2.544-.36.544-.461 0-.1-.236-.262-.544-.462C.91 4.785 0 4.194 0 3V1a1 1 0 0 1 1-1h2c1.192 0 1.761.876 2.138 1.455.2.309.363.545.462.545.1 0 .261-.236.462-.546C6.439.875 7.008 0 8.199 0c1.193 0 1.762.875 2.139 1.455.2.309.363.545.463.545.098 0 .26-.236.46-.544.377-.58.946-1.456 2.14-1.456 1.191 0 1.761.876 2.138 1.455.2.309.362.545.461.545.1 0 .262-.236.462-.545C16.84.875 17.408 0 18.6 0s1.762.876 2.138 1.455c.201.309.363.545.461.545.1 0 .261-.236.462-.545.377-.58.946-1.455 2.14-1.455 1.194 0 1.784.911 2.138 1.456.2.308.36.544.461.544.1 0 .262-.236.462-.545C27.238.875 27.807 0 29 0h2a1 1 0 0 1 1 1v2c0 1.191-.875 1.76-1.455 2.138-.309.2-.545.363-.545.462zM30 2h-1c-.1 0-.26.236-.46.545C28.186 3.089 27.594 4 26.4 4c-1.195 0-1.786-.911-2.14-1.457-.2-.308-.36-.543-.46-.543-.1 0-.261.236-.462.545C22.96 3.125 22.392 4 21.199 4c-1.192 0-1.761-.875-2.137-1.455C18.86 2.236 18.699 2 18.6 2c-.099 0-.26.236-.46.545C17.762 3.125 17.192 4 16 4c-1.191 0-1.76-.875-2.137-1.455C13.662 2.236 13.5 2 13.4 2c-.1 0-.261.236-.462.545-.376.58-.945 1.455-2.137 1.455-1.193 0-1.763-.875-2.14-1.455C8.461 2.236 8.3 2 8.2 2c-.098 0-.26.236-.46.545C7.362 3.125 6.793 4 5.599 4c-1.191 0-1.76-.875-2.138-1.455C3.261 2.236 3.1 2 3.001 2H2v1c0 .1.235.26.543.46C3.089 3.815 4 4.406 4 5.6c0 1.194-.911 1.786-1.456 2.139C2.236 7.939 2 8.1 2 8.2c0 .1.236.261.545.462C3.125 9.038 4 9.607 4 10.8s-.876 1.762-1.455 2.139c-.309.2-.545.362-.545.46 0 .1.236.262.545.463C3.125 14.238 4 14.808 4 16c0 1.19-.875 1.76-1.454 2.138-.31.2-.546.363-.546.462 0 .1.236.26.545.461.58.377 1.455.946 1.455 2.14 0 1.192-.875 1.761-1.455 2.138-.309.2-.545.362-.545.46 0 .1.236.262.545.463.58.377 1.455.946 1.455 2.138s-.875 1.762-1.455 2.139c-.309.2-.545.363-.545.46V30h1c.1 0 .26-.236.461-.544.354-.545.945-1.456 2.14-1.456 1.193 0 1.785.911 2.138 1.456.2.308.361.544.461.544.1 0 .261-.236.462-.545C9.04 28.875 9.608 28 10.8 28c1.193 0 1.763.876 2.139 1.455.2.309.362.545.461.545.1 0 .261-.236.462-.545.376-.58.945-1.455 2.138-1.455 1.191 0 1.76.875 2.138 1.454.201.31.363.546.463.546.099 0 .26-.236.461-.545.377-.58.945-1.455 2.138-1.455s1.762.876 2.139 1.455c.2.309.362.545.46.545.1 0 .262-.236.463-.545.377-.58.946-1.455 2.138-1.455s1.762.876 2.14 1.455c.2.309.361.545.46.545h1v-1c0-.1-.236-.26-.544-.46-.544-.354-1.456-.945-1.456-2.14 0-1.194.911-1.785 1.456-2.139.308-.2.544-.361.544-.461 0-.1-.236-.261-.545-.462-.58-.377-1.455-.945-1.455-2.138s.876-1.762 1.455-2.14c.309-.2.545-.361.545-.46 0-.1-.236-.261-.545-.462C28.875 17.762 28 17.192 28 16c0-1.19.875-1.76 1.454-2.138.31-.201.546-.363.546-.462 0-.1-.236-.26-.545-.461-.58-.377-1.455-.946-1.455-2.14 0-1.192.876-1.761 1.455-2.138.309-.2.545-.362.545-.46 0-.1-.236-.262-.545-.463C28.875 7.361 28 6.792 28 5.6s.876-1.761 1.455-2.139c.309-.2.545-.362.545-.46zm-3 4v20a1 1 0 0 1-1 1H6a1 1 0 0 1-1-1V6a1 1 0 0 1 1-1h20a1 1 0 0 1 1 1zm-2 1H7v18h18zM9 17a1 1 0 0 1 1-1c1.052 0 1.63.386 2.053.668.331.221.497.332.944.332.447 0 .613-.11.944-.332.423-.282 1.002-.668 2.054-.668 1.054 0 1.633.386 2.057.668.331.221.498.332.945.332.448 0 .615-.11.947-.332C20.367 16.386 20.946 16 22 16a1 1 0 0 1 0 2c-.449 0-.615.111-.948.333-.423.281-1.002.667-2.055.667-1.052 0-1.631-.386-2.054-.667-.333-.222-.5-.333-.948-.333-.447 0-.613.11-.944.332-.423.282-1.002.668-2.054.668-1.053 0-1.631-.386-2.054-.669-.331-.22-.497-.33-.943-.33A1 1 0 0 1 9 17zm0 4a1 1 0 0 1 1-1c1.052 0 1.63.386 2.053.668.331.221.497.332.944.332.447 0 .613-.11.944-.332.423-.282 1.002-.668 2.054-.668 1.054 0 1.633.386 2.057.668.331.221.498.332.945.332.448 0 .615-.11.947-.332C20.367 20.386 20.946 20 22 20a1 1 0 1 1 0 2c-.449 0-.615.111-.948.333-.423.281-1.002.667-2.055.667-1.052 0-1.631-.386-2.054-.667-.333-.222-.5-.333-.948-.333-.447 0-.613.11-.944.332-.423.282-1.002.668-2.054.668-1.053 0-1.631-.386-2.054-.668C10.612 22.11 10.446 22 10 22a1 1 0 0 1-1-1zm10-9v-2a1 1 0 0 1 1-1h2a1 1 0 0 1 1 1v2a1 1 0 0 1-1 1h-2a1 1 0 0 1-1-1z"/></g></g></svg>