<svg xmlns="http://www.w3.org/2000/svg" width="32" height="32" viewBox="0 0 32 32"><g><g><path fill="#f04e23" d="M32 16a1 1 0 0 1-1 1h-6.06a8.955 8.955 0 0 1-1.915 4.611l2.682 2.682a1 1 0 1 1-1.414 1.414l-2.682-2.682A8.959 8.959 0 0 1 17 24.942V31a1 1 0 1 1-2 0v-6.058a8.955 8.955 0 0 1-4.611-1.917l-2.683 2.682a.997.997 0 0 1-1.413 0 1 1 0 0 1 0-1.414l2.682-2.683A8.951 8.951 0 0 1 7.059 17H1a1 1 0 1 1 0-2h6.06a8.954 8.954 0 0 1 1.915-4.611L6.293 7.707a1 1 0 1 1 1.414-1.414l2.682 2.682A8.954 8.954 0 0 1 15 7.059V1a1 1 0 1 1 2 0V7.06a8.955 8.955 0 0 1 4.61 1.916l2.683-2.682a1 1 0 1 1 1.414 1.414l-2.682 2.682A8.95 8.95 0 0 1 24.94 15H31a1 1 0 0 1 1 1zm-9 0c0-3.86-3.14-7-7-7s-7 3.14-7 7 3.14 7 7 7 7-3.14 7-7z"/></g></g></svg>