<svg xmlns="http://www.w3.org/2000/svg" width="32" height="32" viewBox="0 0 32 32"><g><g><path fill="#f04e23" d="M32 18a1 1 0 1 1-2 0c0-2.206-1.794-4-4-4s-4 1.794-4 4a1 1 0 0 1-2 0c0-1.858-1.28-3.41-3-3.858V27c0 2.757-2.243 5-5 5s-5-2.243-5-5a1 1 0 1 1 2 0c0 1.654 1.346 3 3 3s3-1.346 3-3V14.142c-1.72.447-3 2-3 3.858a1 1 0 0 1-2 0c0-2.206-1.794-4-4-4s-4 1.794-4 4a1 1 0 0 1-2 0c0-.207.01-.411.031-.613C.344 9.184 6.848 2.56 15 2.051V1a1 1 0 0 1 2 0v1.05c8.152.509 14.656 7.134 14.969 15.337.02.202.031.406.031.613zm-3.01-5.194C26.92 7.652 21.884 4 16 4S5.079 7.652 3.01 12.806C3.892 12.296 4.911 12 6 12a5.997 5.997 0 0 1 5 2.69A5.997 5.997 0 0 1 16 12a5.997 5.997 0 0 1 5 2.69A5.997 5.997 0 0 1 26 12c1.089 0 2.108.296 2.99.806z"/></g></g></svg>